<?xml version="1.0" encoding="UTF-8"?>
<svg version="1.1" xmlns="http://www.w3.org/2000/svg" width="512" height="512">
<path d="M0 0 C1.66329505 -0.00135041 3.32658971 -0.00329406 4.98988342 -0.00579834 C8.46196277 -0.00873274 11.93393862 -0.00450706 15.40600586 0.00488281 C19.82819598 0.01626737 24.25014298 0.00971344 28.67232418 -0.00226212 C32.10325407 -0.00953406 35.53412757 -0.00716831 38.96505928 -0.00200653 C40.59433586 -0.00068428 42.22361777 -0.00226705 43.85288811 -0.00696564 C59.5022587 -0.04219961 73.05548604 0.80381532 85.09765625 11.953125 C96.71092171 24.47255902 97.10161224 38.50624349 97.0859375 54.6640625 C97.08983357 56.34738265 97.09417008 58.03070183 97.09892273 59.71401978 C97.10634935 63.2289754 97.10611967 66.74383051 97.10083008 70.25878906 C97.09504048 74.7325238 97.11197148 79.20584384 97.13517475 83.67951012 C97.15000455 87.15252024 97.1507713 90.6254326 97.14766502 94.09846878 C97.14817361 95.7464645 97.15332299 97.39446637 97.16347694 99.04243088 C97.24839427 114.74900213 95.55037957 128.4064981 84.22265625 140.203125 C82.22880646 142.14916064 80.79295328 143.26224729 78.21080971 144.38084507 C75.42890238 146.11153475 75.42890238 146.11153475 75.16267967 149.62428951 C75.1381683 151.04756913 75.14152178 152.47148179 75.16610718 153.89476013 C75.1598682 154.6795048 75.15362922 155.46424947 75.14720118 156.27277428 C75.13223653 158.91209349 75.15295958 161.54994333 75.17333984 164.18920898 C75.16979986 166.07836432 75.16402369 167.9675166 75.15617371 169.85665894 C75.14396933 173.93282097 75.14749292 178.00856493 75.16300583 182.08471489 C75.18731266 188.54691732 75.17582702 195.00875369 75.15933228 201.47096252 C75.13479598 212.88083959 75.14064114 224.29055122 75.15313721 235.70043945 C75.17166355 252.81512548 75.16666346 269.92977693 75.13310301 287.04443985 C75.1216752 293.44912921 75.12591298 299.85355041 75.14312339 306.25822437 C75.15110975 310.27553188 75.14671359 314.2927641 75.13941383 318.31007004 C75.13861407 320.15128028 75.14281871 321.99250187 75.15285683 323.83368492 C75.23605127 339.89277876 73.99649891 356.11999671 69.09765625 371.515625 C68.84346924 372.33297119 68.58928223 373.15031738 68.32739258 373.99243164 C59.49402565 401.19052969 41.31184374 422.89187238 16.1015625 436.2578125 C-5.30103669 447.0782992 -28.2282361 449.73159147 -51.89257812 449.65380859 C-54.00393442 449.65788472 -56.11528859 449.66323238 -58.22663879 449.66973877 C-63.90640665 449.68329446 -69.58600913 449.67816275 -75.2657795 449.66860151 C-81.24306775 449.66094348 -87.22034295 449.66806743 -93.19763184 449.67276001 C-103.23057567 449.67819981 -113.26345301 449.67107275 -123.29638672 449.65673828 C-134.8537439 449.64041526 -146.41094224 449.64570503 -157.96829557 449.6622175 C-167.9365993 449.67588316 -177.90485553 449.67772729 -187.87316561 449.66990149 C-193.80692424 449.6652528 -199.74060849 449.66452217 -205.67436218 449.67451096 C-211.25600717 449.68325269 -216.83744971 449.67702866 -222.4190731 449.65982819 C-224.45302178 449.6559015 -226.48698785 449.65693077 -228.52092934 449.66361618 C-244.43811217 449.71106362 -259.84175854 448.37788029 -275.15234375 443.703125 C-275.96880371 443.45481934 -276.78526367 443.20651367 -277.62646484 442.95068359 C-291.08919158 438.6042863 -303.70103752 431.75132841 -314.21484375 422.265625 C-314.95476562 421.66621094 -315.6946875 421.06679688 -316.45703125 420.44921875 C-338.48360544 402.19536228 -348.82347306 372.88926793 -352.21484375 345.265625 C-352.35354519 342.26609809 -352.35847548 339.27121641 -352.35528564 336.2688446 C-352.35825677 335.3853494 -352.36122789 334.5018542 -352.36428905 333.59158641 C-352.37293324 330.64267224 -352.37448069 327.69379887 -352.37597656 324.74487305 C-352.38060796 322.62528904 -352.38563305 320.50570587 -352.39102173 318.38612366 C-352.40412123 312.63344724 -352.41058651 306.88078248 -352.41503239 301.12809348 C-352.41796852 297.52762748 -352.42207446 293.92716462 -352.42653656 290.32670021 C-352.44020824 279.04355214 -352.44987516 267.7604113 -352.45373845 256.47725552 C-352.4582113 243.48751343 -352.4757247 230.49787697 -352.50473905 217.50816697 C-352.52642592 207.44667909 -352.53644654 197.38522077 -352.53777957 187.32370979 C-352.53882306 181.32493861 -352.54463265 175.32626677 -352.56259918 169.32752037 C-352.57920017 163.67463605 -352.58117755 158.02192444 -352.57246017 152.36902428 C-352.57169606 150.30766331 -352.5759487 148.2462926 -352.58591843 146.1849556 C-352.74287529 111.67529823 -344.12256508 79.23974026 -319.52734375 54.015625 C-295.65219918 30.47876585 -262.19740935 21.83505777 -229.4181366 21.91777039 C-227.658476 21.93169165 -225.89881722 21.94584399 -224.13916016 21.96020508 C-222.22478989 21.9642998 -220.31041606 21.96694037 -218.39604187 21.96826172 C-214.3207679 21.97342095 -210.24565428 21.98723763 -206.17042923 22.007761 C-199.72339396 22.03876344 -193.27653518 22.04106994 -186.82943726 22.03825378 C-168.51344764 22.03395973 -150.19768413 22.05768757 -131.88183594 22.1315918 C-121.73025287 22.17231046 -111.57904538 22.18458461 -101.42739427 22.16535491 C-95.01919675 22.15480371 -88.61240171 22.17930229 -82.20440888 22.22972739 C-78.22803411 22.25260017 -74.25227187 22.2420891 -70.2759037 22.22200775 C-68.43360791 22.21937946 -66.59123373 22.23045724 -64.7491169 22.25626945 C-55.29552754 22.76964512 -55.29552754 22.76964512 -46.83311081 19.49725914 C-45.29910437 17.47046885 -44.25688859 15.57283399 -43.21484375 13.265625 C-31.03207312 0.38801955 -16.75036746 -0.04823613 0 0 Z M10.1315918 27.41479492 C8.4135589 31.05241417 8.40731902 34.25651708 8.4921875 38.19140625 C8.49855476 39.31279243 8.49855476 39.31279243 8.50505066 40.45683289 C8.52176569 42.83097232 8.55940278 45.20424467 8.59765625 47.578125 C8.61271244 49.19334706 8.62639922 50.80858251 8.63867188 52.42382812 C8.67164545 56.37142488 8.72337656 60.31837822 8.78515625 64.265625 C7.75269775 64.10481445 6.72023926 63.94400391 5.65649414 63.77832031 C0.16837388 63.05150865 -5.2482674 63.04138657 -10.77734375 63.015625 C-11.88787109 62.995 -12.99839844 62.974375 -14.14257812 62.953125 C-22.10044827 62.90890253 -22.10044827 62.90890253 -29.21484375 66.265625 C-32.6511227 69.70190395 -34.11702982 72.37492831 -34.21484375 77.265625 C-32.99848624 81.41555061 -31.92924328 83.66933775 -28.59521484 86.45214844 C-24.64802445 88.56970804 -21.5498602 88.78249632 -17.19140625 88.65625 C-16.44523041 88.65059021 -15.69905457 88.64493042 -14.93026733 88.63909912 C-12.56611738 88.61685398 -10.20352916 88.56668484 -7.83984375 88.515625 C-6.22918868 88.49554444 -4.61850966 88.4772964 -3.0078125 88.4609375 C0.92377132 88.41702881 4.85419977 88.34808818 8.78515625 88.265625 C8.76420898 89.22863525 8.74326172 90.19164551 8.72167969 91.18383789 C8.64886683 94.78248012 8.60320828 98.38105823 8.56542969 101.98022461 C8.54540755 103.53307065 8.51818108 105.08584219 8.48339844 106.63842773 C8.43446015 108.88023332 8.41209457 111.12103593 8.39453125 113.36328125 C8.37388611 114.04898697 8.35324097 114.73469269 8.33197021 115.44117737 C8.32947716 120.88861684 9.79865569 123.87806719 12.78515625 128.265625 C15.60798159 130.19620795 18.39331122 130.91039799 21.78515625 131.265625 C27.03493793 129.88863308 29.88547126 127.83820517 32.78515625 123.265625 C33.6451898 120.50785487 33.91331841 118.02117982 33.91796875 115.140625 C33.91925781 114.35042969 33.92054688 113.56023437 33.921875 112.74609375 C33.91800781 111.92753906 33.91414063 111.10898438 33.91015625 110.265625 C33.91402344 109.47800781 33.91789062 108.69039063 33.921875 107.87890625 C33.91128994 101.3055812 33.40197185 94.80752353 32.78515625 88.265625 C33.78369629 88.28657227 34.78223633 88.30751953 35.81103516 88.32910156 C39.53452068 88.401792 43.25794415 88.4475292 46.98193359 88.48535156 C48.59011399 88.50540127 50.19822208 88.53264864 51.80615234 88.56738281 C54.12485645 88.61619764 56.4425925 88.63865928 58.76171875 88.65625 C59.47445953 88.67689514 60.18720032 88.69754028 60.92153931 88.71881104 C66.02764336 88.72107884 68.84819311 87.45664496 72.78515625 84.265625 C75.15817792 81.33889828 75.74482251 79.58253296 76.22265625 75.828125 C75.69008016 71.491434 74.67948298 69.53101926 71.78515625 66.265625 C66.67383227 63.60119051 62.94894559 62.90220585 57.1015625 62.97265625 C56.4011937 62.97690109 55.70082489 62.98114594 54.97923279 62.98551941 C52.76829625 63.00215344 50.55831168 63.0397732 48.34765625 63.078125 C46.8379039 63.09319174 45.32813709 63.10687664 43.81835938 63.11914062 C40.14032191 63.15200579 36.46283218 63.20367918 32.78515625 63.265625 C32.85416138 61.91198853 32.85416138 61.91198853 32.92456055 60.53100586 C33.08867226 57.1562014 33.23784154 53.78140047 33.37719727 50.40551758 C33.44030499 48.94952058 33.50921639 47.49376232 33.58422852 46.03833008 C33.69153748 43.93608271 33.77736797 41.83383741 33.859375 39.73046875 C33.94578247 37.83735962 33.94578247 37.83735962 34.03393555 35.90600586 C33.65773308 30.40104513 32.2665385 26.57866836 28.03515625 22.828125 C20.81165372 19.35528724 14.99703742 21.09108049 10.1315918 27.41479492 Z " fill="#E3CEA1" transform="translate(384.21484375,30.734375)"/>
<path d="M0 0 C4.75665817 3.81968679 9.2939455 7.89698393 13.78125 12.02734375 C17.21951361 15.12286906 20.80758418 18.01778299 24.4140625 20.9140625 C25.34992188 21.68492187 26.28578125 22.45578125 27.25 23.25 C27.90860519 23.66585861 28.56721039 24.08171722 29.24577332 24.51017761 C32.811144 27.02292553 34.9298606 28.92349249 35.97460938 33.25244141 C36.22628953 36.99894109 36.23045685 40.69973342 36.13671875 44.44921875 C36.12938825 45.8486048 36.12520258 47.24801045 36.12397766 48.64741516 C36.1132297 51.58259663 36.07626657 54.51581625 36.01831055 57.45043945 C35.94562734 61.14974329 35.91939918 64.84735619 35.9104948 68.54730415 C35.85593662 87.74773947 35.43739801 107.03691548 29.5625 125.5 C29.30831299 126.31734619 29.05412598 127.13469238 28.79223633 127.97680664 C19.9588694 155.17490469 1.77668749 176.87624738 -23.43359375 190.2421875 C-44.83619294 201.0626742 -67.76339235 203.71596647 -91.42773438 203.63818359 C-93.53909067 203.64225972 -95.65044484 203.64760738 -97.76179504 203.65411377 C-103.4415629 203.66766946 -109.12116538 203.66253775 -114.80093575 203.65297651 C-120.778224 203.64531848 -126.7554992 203.65244243 -132.73278809 203.65713501 C-142.76573192 203.66257481 -152.79860926 203.65544775 -162.83154297 203.64111328 C-174.38890015 203.62479026 -185.94609849 203.63008003 -197.50345182 203.6465925 C-207.47175555 203.66025816 -217.44001178 203.66210229 -227.40832186 203.65427649 C-233.34208049 203.6496278 -239.27576474 203.64889717 -245.20951843 203.65888596 C-250.79116342 203.66762769 -256.37260596 203.66140366 -261.95422935 203.64420319 C-263.98817803 203.6402765 -266.0221441 203.64130577 -268.05608559 203.64799118 C-283.97326842 203.69543862 -299.37691479 202.36225529 -314.6875 197.6875 C-315.50395996 197.43919434 -316.32041992 197.19088867 -317.16162109 196.93505859 C-330.62434783 192.5886613 -343.23619377 185.73570341 -353.75 176.25 C-354.48992187 175.65058594 -355.22984375 175.05117188 -355.9921875 174.43359375 C-366.29865408 165.89242162 -374.36477318 154.48266755 -379.75 142.25 C-379.75 141.26 -379.75 140.27 -379.75 139.25 C-377.37899865 137.40371736 -375.03894202 135.77138478 -372.51953125 134.1484375 C-371.75437195 133.64348755 -370.98921265 133.1385376 -370.2008667 132.61828613 C-367.66074222 130.9445336 -365.11157054 129.28508924 -362.5625 127.625 C-359.88613927 125.86541209 -357.21228151 124.10206193 -354.53843689 122.33865356 C-352.69716374 121.12477484 -350.85507975 119.91212522 -349.01222229 118.70065308 C-340.50648287 113.10626788 -332.06609631 107.4182202 -323.64065552 101.70385742 C-319.81858117 99.11188691 -315.99334902 96.52458801 -312.16796875 93.9375 C-311.44548447 93.44882446 -310.72300018 92.96014893 -309.97862244 92.45666504 C-303.37459366 87.99196422 -296.75584184 83.54979041 -290.125 79.125 C-289.21435791 78.51640137 -288.30371582 77.90780273 -287.36547852 77.28076172 C-269.82722112 65.60180535 -255.93142764 56.80039877 -234.25 60.9140625 C-224.88337444 63.71917172 -217.14880551 69.20574583 -209.6875 75.375 C-198.28355755 84.73022147 -186.22217731 87.56864941 -171.75 86.25 C-159.43729193 83.92983231 -150.31989563 78.01039561 -141.296875 69.58984375 C-138.79024163 67.28697045 -136.21203271 65.13608776 -133.5625 63 C-127.78436349 58.32052325 -122.18101044 53.4558418 -116.57421875 48.57421875 C-112.98232055 45.44707968 -109.36975649 42.34481234 -105.75 39.25 C-100.90069975 35.10157251 -96.06936565 30.93316216 -91.25 26.75 C-85.21261004 21.51207821 -79.17138757 16.27906526 -73.08203125 11.1015625 C-70.92864052 9.26928599 -68.8040177 7.41125393 -66.69921875 5.5234375 C-47.32734513 -11.46223182 -21.58062644 -16.59341369 0 0 Z " fill="#1D9B61" transform="translate(423.75,276.75)"/>
<path d="M0 0 C1.66043599 0.00052016 3.3208726 -0.00000355 4.98130798 -0.00151062 C8.44149104 -0.0014215 11.90143822 0.00888542 15.36157227 0.02709961 C19.76802706 0.04980227 24.1741388 0.05032101 28.58063602 0.04358196 C32.0029956 0.04022036 35.4252788 0.04691277 38.84762383 0.0567112 C40.47131385 0.06052446 42.09501242 0.06172775 43.71870613 0.06012535 C59.33983142 0.05754639 72.88433161 0.92383845 84.90234375 12.05078125 C96.51560921 24.57021527 96.90629974 38.60389974 96.890625 54.76171875 C96.89452107 56.4450389 96.89885758 58.12835808 96.90361023 59.81167603 C96.91103685 63.32663165 96.91080717 66.84148676 96.90551758 70.35644531 C96.89972798 74.83018005 96.91665898 79.30350009 96.93986225 83.77716637 C96.95469205 87.25017649 96.9554588 90.72308885 96.95235252 94.19612503 C96.95286111 95.84412075 96.95801049 97.49212262 96.96816444 99.14008713 C97.05308177 114.84665838 95.35506707 128.50415435 84.02734375 140.30078125 C72.77717099 151.28116569 57.48113706 150.9690161 42.859375 150.89453125 C40.97376811 150.89723261 39.0881626 150.90112036 37.20256042 150.90612793 C33.27333154 150.91198838 29.34446912 150.90356951 25.4152832 150.88476562 C20.40210098 150.86193071 15.38977347 150.87514987 10.3766222 150.89905548 C6.49103957 150.913567 2.6056569 150.90888382 -1.27993202 150.89854431 C-3.12774065 150.89589425 -4.97556799 150.89908552 -6.82335472 150.90846252 C-21.59929021 150.96703578 -32.39757081 149.24685218 -43.3203125 138.48046875 C-50.7799851 130.40311625 -53.54327374 123.04581478 -53.60302734 112.14501953 C-53.61120483 111.31836288 -53.61938232 110.49170624 -53.62780762 109.63999939 C-53.6526108 106.90453804 -53.66917182 104.16912873 -53.68359375 101.43359375 C-53.68891743 100.49490322 -53.6942411 99.55621269 -53.6997261 98.589077 C-53.72644589 93.6127784 -53.74581763 88.63650469 -53.76025391 83.66015625 C-53.7735453 79.56324703 -53.80131054 75.46684153 -53.84228516 71.37011719 C-53.89193328 66.40522046 -53.916415 61.44077746 -53.92348099 56.47564316 C-53.93014419 54.59480713 -53.94523544 52.71397924 -53.9693718 50.83328629 C-54.13615166 37.04216293 -53.38948558 25.01159475 -44.22265625 13.86328125 C-31.61012754 1.18831428 -17.03507137 -0.10662817 0 0 Z M9.9362793 27.51245117 C8.2182464 31.15007042 8.21200652 34.35417333 8.296875 38.2890625 C8.30324226 39.41044868 8.30324226 39.41044868 8.30973816 40.55448914 C8.32645319 42.92862857 8.36409028 45.30190092 8.40234375 47.67578125 C8.41739994 49.29100331 8.43108672 50.90623876 8.44335938 52.52148438 C8.47633295 56.46908113 8.52806406 60.41603447 8.58984375 64.36328125 C7.55738525 64.2024707 6.52492676 64.04166016 5.46118164 63.87597656 C-0.02693862 63.1491649 -5.4435799 63.13904282 -10.97265625 63.11328125 C-12.08318359 63.09265625 -13.19371094 63.07203125 -14.33789062 63.05078125 C-22.29576077 63.00655878 -22.29576077 63.00655878 -29.41015625 66.36328125 C-32.8464352 69.7995602 -34.31234232 72.47258456 -34.41015625 77.36328125 C-33.19379874 81.51320686 -32.12455578 83.766994 -28.79052734 86.54980469 C-24.84333695 88.66736429 -21.7451727 88.88015257 -17.38671875 88.75390625 C-16.64054291 88.74824646 -15.89436707 88.74258667 -15.12557983 88.73675537 C-12.76142988 88.71451023 -10.39884166 88.66434109 -8.03515625 88.61328125 C-6.42450118 88.59320069 -4.81382216 88.57495265 -3.203125 88.55859375 C0.72845882 88.51468506 4.65888727 88.44574443 8.58984375 88.36328125 C8.56889648 89.3262915 8.54794922 90.28930176 8.52636719 91.28149414 C8.45355433 94.88013637 8.40789578 98.47871448 8.37011719 102.07788086 C8.35009505 103.6307269 8.32286858 105.18349844 8.28808594 106.73608398 C8.23914765 108.97788957 8.21678207 111.21869218 8.19921875 113.4609375 C8.17857361 114.14664322 8.15792847 114.83234894 8.13665771 115.53883362 C8.13416466 120.98627309 9.60334319 123.97572344 12.58984375 128.36328125 C15.41266909 130.2938642 18.19799872 131.00805424 21.58984375 131.36328125 C26.83962543 129.98628933 29.69015876 127.93586142 32.58984375 123.36328125 C33.4498773 120.60551112 33.71800591 118.11883607 33.72265625 115.23828125 C33.72394531 114.44808594 33.72523438 113.65789062 33.7265625 112.84375 C33.72269531 112.02519531 33.71882813 111.20664063 33.71484375 110.36328125 C33.71871094 109.57566406 33.72257812 108.78804688 33.7265625 107.9765625 C33.71597744 101.40323745 33.20665935 94.90517978 32.58984375 88.36328125 C33.58838379 88.38422852 34.58692383 88.40517578 35.61572266 88.42675781 C39.33920818 88.49944825 43.06263165 88.54518545 46.78662109 88.58300781 C48.39480149 88.60305752 50.00290958 88.63030489 51.61083984 88.66503906 C53.92954395 88.71385389 56.24728 88.73631553 58.56640625 88.75390625 C59.27914703 88.77455139 59.99188782 88.79519653 60.72622681 88.81646729 C65.83233086 88.81873509 68.65288061 87.55430121 72.58984375 84.36328125 C74.96286542 81.43655453 75.54951001 79.68018921 76.02734375 75.92578125 C75.49476766 71.58909025 74.48417048 69.62867551 71.58984375 66.36328125 C66.47851977 63.69884676 62.75363309 62.9998621 56.90625 63.0703125 C56.2058812 63.07455734 55.50551239 63.07880219 54.78392029 63.08317566 C52.57298375 63.09980969 50.36299918 63.13742945 48.15234375 63.17578125 C46.6425914 63.19084799 45.13282459 63.20453289 43.62304688 63.21679688 C39.94500941 63.24966204 36.26751968 63.30133543 32.58984375 63.36328125 C32.65884888 62.00964478 32.65884888 62.00964478 32.72924805 60.62866211 C32.89335976 57.25385765 33.04252904 53.87905672 33.18188477 50.50317383 C33.24499249 49.04717683 33.31390389 47.59141857 33.38891602 46.13598633 C33.49622498 44.03373896 33.58205547 41.93149366 33.6640625 39.828125 C33.75046997 37.93501587 33.75046997 37.93501587 33.83862305 36.00366211 C33.46242058 30.49870138 32.071226 26.67632461 27.83984375 22.92578125 C20.61634122 19.45294349 14.80172492 21.18873674 9.9362793 27.51245117 Z " fill="#6282C0" transform="translate(384.41015625,30.63671875)"/>
<path d="M0 0 C10.05310672 7.61256152 16.5777804 17.53276773 19.4296875 29.83984375 C19.61144531 30.43925781 19.79320312 31.03867188 19.98046875 31.65625 C22.75950868 45.16480063 19.40397703 58.09296947 12.046875 69.53125 C4.20339855 80.72809682 -6.54078961 88.07317892 -19.890625 91.421875 C-34.51115425 93.70233656 -47.80169596 91.14900929 -60.0703125 82.75 C-71.05702342 74.35546619 -78.04060746 63.52583223 -80.5703125 49.83984375 C-82.24280029 33.23340378 -78.62757231 20.77349485 -68.69921875 7.30078125 C-51.2803978 -12.83473655 -21.23407626 -14.55611314 0 0 Z " fill="#F6B115" transform="translate(211.5703125,140.16015625)"/>
</svg>
